<?xml version="1.0" encoding="utf-8"?>
<!-- Generator: Adobe Illustrator 16.0.0, SVG Export Plug-In . SVG Version: 6.00 Build 0)  -->
<!DOCTYPE svg PUBLIC "-//W3C//DTD SVG 1.1//EN" "http://www.w3.org/Graphics/SVG/1.1/DTD/svg11.dtd">
<svg version="1.1" id="Livello_1" xmlns="http://www.w3.org/2000/svg" xmlns:xlink="http://www.w3.org/1999/xlink" x="0px" y="0px"
	 width="1280px" height="800px" viewBox="0 0 1280 800" enable-background="new 0 0 1280 800" xml:space="preserve">
<g>
	<path fill="#060E9F" d="M1242.964,92.394V57.15c0-26.04-21.109-47.149-47.148-47.149h-244.97h-35.244
		c-26.04,0-47.15,21.109-47.15,47.149v35.244v116.099v82.393v233.734c0,26.041,21.11,47.149,47.15,47.149h35.244V290.885h104.996
		v-82.393H950.846V92.394H1242.964z"/>
	<path fill="#060E9F" d="M827.256,66.178c0-31.025-25.152-56.177-56.178-56.177H535.137h-26.216
		c-31.025,0-56.177,25.151-56.177,56.177v26.216v423.198c0,31.024,25.151,56.177,56.177,56.177h26.216V92.394h292.119V66.178z"/>
	<path fill="#060E9F" d="M411.548,92.394V66.178c0-31.025-25.151-56.178-56.177-56.178H119.429H93.212
		c-31.024,0-56.176,25.152-56.176,56.178v26.216v396.982v26.216c0,31.026,25.151,56.177,56.176,56.177h26.217h104.863v-82.393
		H119.429V92.394H411.548z"/>
	<path fill="#060E9F" d="M97.612,656.723c-0.172-0.554-0.684-0.932-1.263-0.932H78.972c-0.579,0-1.091,0.378-1.262,0.932
		L37.457,786.851c-0.124,0.4-0.051,0.836,0.198,1.173c0.249,0.339,0.644,0.539,1.063,0.539h12.945c0.582,0,1.096-0.381,1.264-0.938
		l8.05-26.562h53.365l8.05,26.562c0.17,0.558,0.683,0.938,1.265,0.938h12.945c0.419,0,0.813-0.2,1.063-0.537
		c0.249-0.339,0.323-0.774,0.199-1.175L97.612,656.723z M109.655,745.839H65.667l21.994-74.483L109.655,745.839z"/>
	<path fill="#060E9F" d="M250.798,655.792h-12.413c-0.729,0-1.321,0.591-1.321,1.321v100.65c0,11.997-3.932,17.013-28.293,17.013
		c-24.055,0-27.937-5.016-27.937-17.013v-100.65c0-0.73-0.592-1.321-1.321-1.321h-12.412c-0.73,0-1.322,0.591-1.322,1.321v96.875
		c0,14.505,3.118,23.397,10.108,28.836c6.466,5.028,16.301,7.176,32.884,7.176c16.828,0,26.774-2.145,33.262-7.175
		c6.977-5.408,10.087-14.302,10.087-28.837v-96.875C252.119,656.383,251.527,655.792,250.798,655.792"/>
	<path fill="#060E9F" d="M363.22,655.792h-82.634c-0.729,0-1.321,0.591-1.321,1.321v12.581c0,0.729,0.592,1.321,1.321,1.321h33.789
		V787.24c0,0.73,0.593,1.322,1.321,1.322h12.413c0.73,0,1.321-0.592,1.321-1.322V671.016h33.789c0.729,0,1.321-0.592,1.321-1.321
		v-12.581C364.541,656.383,363.949,655.792,363.22,655.792"/>
	<path fill="#060E9F" d="M436.453,654.353c-34.345,0-46.539,6.935-46.539,45.896v43.855c0,38.961,12.194,45.895,46.539,45.895
		c34.346,0,46.54-6.934,46.54-45.895v-43.855C482.993,661.287,470.799,654.353,436.453,654.353 M404.97,700.968
		c0-28.163,3.236-31.391,31.483-31.391c28.248,0,31.484,3.228,31.484,31.391v42.418c0,28.163-3.236,31.391-31.484,31.391
		c-28.247,0-31.483-3.228-31.483-31.391V700.968z"/>
	<path fill="#060E9F" d="M638.781,655.792h-20.748c-0.566,0-1.069,0.361-1.251,0.896l-37.76,111.675l-37.761-111.675
		c-0.181-0.535-0.685-0.896-1.251-0.896h-20.747c-0.729,0-1.321,0.591-1.321,1.321V787.24c0,0.73,0.592,1.322,1.321,1.322h12.413
		c0.729,0,1.321-0.592,1.321-1.322V677.614l38.038,110.06c0.184,0.531,0.685,0.89,1.248,0.89h13.477c0.563,0,1.065-0.358,1.249-0.89
		l38.037-110.06V787.24c0,0.73,0.592,1.322,1.322,1.322h12.412c0.729,0,1.321-0.592,1.321-1.322V657.114
		C640.103,656.383,639.511,655.792,638.781,655.792"/>
	<path fill="#060E9F" d="M728.171,656.723c-0.173-0.554-0.684-0.932-1.262-0.932H709.53c-0.579,0-1.091,0.378-1.262,0.932
		l-40.253,130.128c-0.124,0.4-0.051,0.836,0.197,1.175c0.251,0.337,0.646,0.537,1.063,0.537h12.946c0.582,0,1.096-0.381,1.264-0.938
		l8.051-26.562h53.365l8.051,26.562c0.168,0.558,0.681,0.938,1.264,0.938h12.944c0.42,0,0.814-0.2,1.063-0.537
		c0.25-0.339,0.324-0.774,0.199-1.175L728.171,656.723z M740.213,745.839h-43.987l21.994-74.482L740.213,745.839z"/>
	<path fill="#060E9F" d="M874.44,773.338h-66.373l66.597-102.927c0.138-0.214,0.212-0.463,0.212-0.718v-12.58
		c0-0.73-0.592-1.321-1.321-1.321h-79.619c-0.729,0-1.322,0.591-1.322,1.321v12.58c0,0.73,0.593,1.321,1.322,1.321h63.004
		l-66.597,102.926c-0.138,0.215-0.211,0.464-0.211,0.72v12.58c0,0.729,0.592,1.322,1.32,1.322h82.988
		c0.729,0,1.322-0.594,1.322-1.322v-12.58C875.763,773.929,875.17,773.338,874.44,773.338"/>
	<path fill="#060E9F" d="M922.67,655.792h-12.413c-0.729,0-1.32,0.591-1.32,1.321V787.24c0,0.73,0.592,1.322,1.32,1.322h12.413
		c0.73,0,1.322-0.592,1.322-1.322V657.114C923.992,656.383,923.4,655.792,922.67,655.792"/>
	<path fill="#060E9F" d="M1008.139,654.353c-34.347,0-46.54,6.935-46.54,45.896v43.855c0,38.961,12.193,45.895,46.54,45.895
		c34.345,0,46.538-6.934,46.538-45.895v-43.855C1054.677,661.287,1042.483,654.353,1008.139,654.353 M976.654,700.968
		c0-28.163,3.236-31.391,31.484-31.391c28.247,0,31.484,3.228,31.484,31.391v42.418c0,28.163-3.237,31.391-31.484,31.391
		c-28.248,0-31.484-3.228-31.484-31.391V700.968z"/>
	<path fill="#060E9F" d="M1181.03,655.792h-12.414c-0.729,0-1.321,0.591-1.321,1.321v111.535l-55.479-112.122
		c-0.225-0.449-0.684-0.734-1.185-0.734h-19.684c-0.729,0-1.321,0.591-1.321,1.321V787.24c0,0.73,0.592,1.322,1.321,1.322h12.412
		c0.73,0,1.321-0.592,1.321-1.322V675.704l55.481,112.122c0.223,0.45,0.681,0.736,1.184,0.736h19.684
		c0.729,0,1.321-0.592,1.321-1.322V657.114C1182.352,656.383,1181.76,655.792,1181.03,655.792"/>
	<path fill="#060E9F" d="M1235.467,655.792h-12.413c-0.73,0-1.321,0.591-1.321,1.321V787.24c0,0.73,0.591,1.322,1.321,1.322h12.413
		c0.728,0,1.32-0.592,1.32-1.322V657.114C1236.787,656.383,1236.194,655.792,1235.467,655.792"/>
</g>
</svg>
